<svg width="444" height="320" viewBox="0 0 444 320" fill="none" xmlns="http://www.w3.org/2000/svg">
<path d="M197.682 66.4538L196.903 342.261C196.912 342.115 196.912 341.968 196.903 341.821C196.768 328.826 187.715 316.356 171.742 307.134L172.521 31.3264C188.544 40.5482 197.682 53.0357 197.682 66.0308V66.4538Z" fill="#0E0F18" stroke="white" stroke-width="2" stroke-linejoin="round"/>
<path d="M269.137 69.0933C269.137 69.8379 269.052 70.5993 268.968 71.3438C268.883 72.0883 268.798 72.8159 268.697 73.5604C268.595 74.3049 268.477 75.0494 268.342 75.7939C268.206 76.5385 268.054 77.266 267.885 77.9936C267.715 78.7212 267.546 79.4657 267.343 80.2102C267.14 80.9548 266.92 81.6654 266.7 82.3761C266.48 83.0868 266.243 83.8482 265.973 84.5758C265.583 85.6926 265.16 86.8093 264.704 87.9599L264.551 88.2983C263.976 89.6351 263.35 90.9549 262.673 92.2747L262.572 92.4439C261.895 93.7299 261.167 95.0158 260.406 96.268L260.22 96.5895C259.458 97.8247 258.646 99.043 257.8 100.244L257.377 100.853C256.548 102.021 255.685 103.155 254.771 104.238L254.06 105.101C253.248 106.099 252.368 107.08 251.505 108.062C251.319 108.265 251.15 108.485 250.947 108.688C249.915 109.821 248.815 110.955 247.681 112.072L246.869 112.867C246.091 113.612 245.279 114.339 244.466 115.067C243.654 115.794 242.977 116.387 242.216 117.047C241.455 117.706 240.812 118.214 240.101 118.739C239.39 119.263 238.493 120.025 237.664 120.651L235.414 122.343C234.551 122.952 233.722 123.578 232.791 124.187L230.388 125.879L227.613 127.571C226.412 128.316 225.228 129.06 223.992 129.788C222.3 130.735 220.693 131.649 219.001 132.546L217.596 133.29C216.209 134.001 214.821 134.695 213.4 135.372L212.283 135.93C210.591 136.759 208.747 137.622 206.936 138.333L205.684 138.874L201.234 140.685L199.694 141.294C197.799 142.005 195.887 142.715 193.958 143.392L193.67 143.494L188.34 145.186C187.105 145.575 185.853 145.947 184.618 146.302C183.383 146.658 182.503 146.945 181.437 147.233L177.562 148.265C176.496 148.536 175.43 148.824 174.347 149.077C173.264 149.331 171.674 149.704 170.337 150.008C169.271 150.245 168.205 150.499 167.122 150.719C165.734 151.023 164.33 151.277 162.909 151.548L159.643 152.191L158.391 152.394C156.563 152.715 154.736 153.003 152.892 153.274L151.335 153.511C149.169 153.815 147.003 154.103 144.804 154.374L143.653 154.492C141.961 154.678 140.387 154.83 138.763 154.983L133.805 155.406L130.573 155.626C128.881 155.744 127.02 155.829 125.243 155.897L122.35 156.032C119.558 156.116 116.732 156.167 113.889 156.167C111.436 156.167 108.999 156.167 106.546 156.066C105.226 156.066 103.923 155.964 102.62 155.913C101.317 155.863 100.099 155.829 98.8469 155.761C97.5948 155.693 96.2411 155.592 94.9382 155.49C93.6353 155.389 92.434 155.338 91.1818 155.22C89.9297 155.101 88.4407 154.966 87.0532 154.831C85.6657 154.695 84.7181 154.611 83.5675 154.475C82.4169 154.34 80.8094 154.137 79.4219 153.951C78.0344 153.764 77.1546 153.68 76.0378 153.511C73.4828 153.155 70.9616 152.749 68.4235 152.326C65.8966 151.886 63.3924 151.413 60.9107 150.905L59.2187 150.55C57.1205 150.093 55.0392 149.636 52.958 149.128L50.2676 148.451L45.1914 147.115L41.0966 145.93L39.6075 145.49C37.6109 144.881 35.6143 144.238 33.6515 143.578L32.4501 143.155C30.8596 142.597 29.2859 142.038 27.7292 141.463L26.0372 140.82C24.785 140.346 23.5329 139.839 22.2977 139.331L19.7596 138.282C18.5582 137.774 17.3738 137.233 16.2062 136.708L13.8881 135.659C12.6021 135.05 11.3331 134.424 10.0809 133.781L8.21966 132.867C6.35839 131.903 4.53093 130.922 2.75426 129.906L1.95898 405.714C3.75258 406.729 5.58003 407.71 7.42439 408.675L9.3195 409.605C10.5716 410.231 11.8238 410.858 13.1098 411.467L15.4279 412.516C16.6123 413.04 17.7799 413.582 18.9813 414.089L21.5194 415.138L23.8882 416.12L25.2588 416.628L26.9509 417.27C28.5076 417.863 30.0812 418.421 31.6718 418.963L32.8731 419.386C34.8359 420.045 36.8156 420.688 38.8292 421.298L40.3182 421.754L43.1101 422.584L44.4131 422.922C46.1051 423.396 47.7972 423.836 49.4893 424.259L52.1796 424.936C54.244 425.443 56.3252 425.9 58.4234 426.357C58.8972 426.458 59.354 426.577 59.8278 426.661H60.0647C62.5577 427.169 65.0619 427.643 67.5774 428.083C70.0986 428.523 72.6536 428.912 75.1918 429.284H75.4287C76.4777 429.436 77.5437 429.555 78.5928 429.69C79.9634 429.859 81.334 430.046 82.7215 430.198C84.109 430.35 85.0396 430.435 86.2071 430.553C87.3747 430.672 88.9483 430.841 90.3358 430.959H90.7081L94.0922 431.179C95.3951 431.281 96.681 431.382 97.9839 431.45L101.791 431.619C103.094 431.619 104.38 431.738 105.7 431.772H106.089C108.407 431.772 110.725 431.856 113.043 431.856C115.869 431.856 118.678 431.856 121.504 431.704H122.096C122.857 431.704 123.619 431.704 124.397 431.585C126.168 431.518 127.945 431.433 129.727 431.332L132.959 431.095C134.651 430.959 136.259 430.841 137.9 430.689L139.372 430.553C140.523 430.452 141.656 430.316 142.756 430.181L143.907 430.063C146.089 429.809 148.272 429.521 150.438 429.2L151.995 428.98C153.839 428.692 155.667 428.404 157.477 428.083L158.746 427.88L159.338 427.778L162.012 427.254L166.225 426.425L169.423 425.714L173.45 424.783L176.665 423.954L180.523 422.922C181.606 422.634 182.655 422.313 183.704 422.008L187.444 420.875L188.442 420.57C189.897 420.113 191.335 419.622 192.757 419.132L193.061 419.03C194.99 418.353 196.902 417.66 198.781 416.932L200.337 416.323C201.826 415.731 203.315 415.138 204.77 414.512L206.141 414.276C207.952 413.48 209.728 412.685 211.471 411.856L212.622 411.297C214.032 410.621 215.419 409.927 216.784 409.216L218.206 408.472C219.898 407.575 221.59 406.661 223.197 405.714L225.295 404.478C225.82 404.157 226.294 403.819 226.801 403.514L229.593 401.737L231.996 400.045C232.876 399.436 233.688 398.827 234.602 398.201C235.515 397.575 236.125 397.084 236.869 396.509C237.614 395.933 238.561 395.24 239.306 394.597C240.05 393.954 240.727 393.446 241.421 392.905C242.114 392.363 242.927 391.602 243.671 390.942L244.754 389.994L246.074 388.725L246.886 387.947C248.02 386.83 249.103 385.713 250.152 384.563L250.71 383.937C251.59 382.955 252.402 381.974 253.265 380.976L253.976 380.113L254.467 379.52C255.194 378.59 255.888 377.642 256.582 376.695L257.005 376.069C257.851 374.867 258.697 373.649 259.424 372.414L259.61 372.109C259.983 371.466 260.372 370.84 260.727 370.197C261.083 369.554 261.438 368.911 261.776 368.285C261.794 368.219 261.823 368.156 261.861 368.099C262.555 366.779 263.164 365.459 263.739 364.123L263.891 363.784C264.247 362.972 264.585 362.092 264.89 361.314C264.991 361.026 265.076 360.738 265.177 360.451C265.431 359.723 265.668 358.996 265.905 358.268C266.142 357.54 266.345 356.813 266.548 356.085C266.751 355.358 266.92 354.613 267.089 353.869C267.191 353.429 267.326 352.989 267.411 352.549C267.495 352.109 267.411 351.957 267.546 351.669C267.682 350.924 267.8 350.18 267.902 349.435C268.003 348.708 268.105 347.963 268.172 347.219C268.24 346.474 268.291 345.713 268.342 344.968C268.342 344.512 268.426 344.055 268.426 343.598C268.426 343.141 268.426 342.447 268.426 341.906L269.204 66.0984C269.255 67.0459 269.188 68.0781 269.137 69.0933Z" fill="#0E0F18" stroke="white" stroke-width="2" stroke-linejoin="round"/>
<path d="M223.501 1.73206C252.723 18.9066 269.187 42.0033 269.187 66.0307C269.187 90.0581 253.01 112.969 223.924 129.872C194.837 146.776 155.378 156.235 113.905 156.269C72.4327 156.303 32.5676 146.929 2.83789 130.008L53.7523 100.414C69.7085 109.635 91.2993 114.847 113.719 114.898C136.139 114.948 157.612 109.821 173.382 100.667C189.152 91.5133 197.9 79.0258 197.68 66.0307C197.46 53.0356 188.475 40.5481 172.502 31.3264L223.501 1.73206Z" fill="#2F74F9" stroke="white" stroke-width="2" stroke-linejoin="round"/>
<path d="M297.546 172.32L296.775 448.177L441.193 448.58L441.963 172.723L297.546 172.32Z" fill="#0E0F18" stroke="white" stroke-width="2" stroke-linejoin="round"/>
<path d="M220.807 255.811L220.037 531.668L297.77 531.885L298.541 256.028L220.807 255.811Z" fill="#0E0F18" stroke="white" stroke-width="2" stroke-linejoin="round"/>
<path d="M441.477 127.639L442.001 172.682L297.6 172.31L298.581 255.966L220.848 255.779L219.9 174.357C219.765 161.836 228.225 149.856 243.42 141.023C258.615 132.191 279.275 127.25 300.95 127.284L441.477 127.639Z" fill="#2F74F9" stroke="white" stroke-width="2" stroke-linejoin="round"/>
</svg>
